<svg width="16" height="16" viewBox="0 0 16 16" fill="none" xmlns="http://www.w3.org/2000/svg">
<g id="Buy">
<g id="Iconly/Light-Outline/Buy">
<g id="Buy_2">
<path id="Combined-Shape" fill-rule="evenodd" clip-rule="evenodd" d="M5.02897 13.3012C5.50497 13.3012 5.8923 13.6879 5.8923 14.1639C5.8923 14.6399 5.50497 15.0272 5.02897 15.0272C4.55297 15.0272 4.1663 14.6399 4.1663 14.1639C4.1663 13.6879 4.55297 13.3012 5.02897 13.3012ZM12.5492 13.3012C13.0258 13.3012 13.4132 13.6879 13.4132 14.1639C13.4132 14.6399 13.0258 15.0272 12.5492 15.0272C12.0732 15.0272 11.6865 14.6399 11.6865 14.1639C11.6865 13.6879 12.0732 13.3012 12.5492 13.3012ZM2.17844 2.00626L3.5651 2.24626C3.78844 2.2856 3.95844 2.47093 3.97777 2.6976L4.13444 4.56493L4.717 4.56518C4.81207 4.56522 4.90612 4.56527 4.99918 4.56531L6.06872 4.56582C6.15397 4.56586 6.23827 4.5659 6.32163 4.56594L7.50256 4.56659C7.57675 4.56664 7.65005 4.56668 7.72247 4.56672L8.55002 4.56725C8.61559 4.56729 8.68031 4.56734 8.74421 4.56738L9.47208 4.56792C9.52955 4.56797 9.58624 4.56801 9.64215 4.56806L10.2768 4.5686C10.3267 4.56865 10.3759 4.56869 10.4244 4.56874L10.8415 4.56915C10.8857 4.5692 10.9293 4.56925 10.9722 4.56929L11.4552 4.56985C11.4929 4.5699 11.5299 4.56995 11.5664 4.56999L11.9742 4.57056C12.0058 4.57061 12.0369 4.57066 12.0673 4.57071L12.3265 4.57114C12.3537 4.57119 12.3803 4.57124 12.4064 4.57128L12.6952 4.57187C12.7173 4.57192 12.7389 4.57197 12.76 4.57202L12.9377 4.57246C12.9561 4.57251 12.974 4.57256 12.9916 4.57261L13.1821 4.57321C13.1964 4.57326 13.2102 4.57331 13.2238 4.57336L13.3356 4.57382C13.347 4.57387 13.358 4.57392 13.3687 4.57397L13.4819 4.57459C13.4901 4.57464 13.498 4.57469 13.5057 4.57474L13.5673 4.57521C13.5734 4.57526 13.5793 4.57532 13.5849 4.57537L13.6293 4.57584C13.6336 4.57589 13.6376 4.57595 13.6415 4.576L13.6717 4.57648C13.6746 4.57653 13.6773 4.57659 13.6798 4.57664L13.6989 4.57712C13.7007 4.57718 13.7023 4.57723 13.7038 4.57729L13.7177 4.57794L13.72 4.5781C13.7265 4.57871 13.7284 4.57893 13.7284 4.57893C14.0998 4.63293 14.4264 4.82693 14.6491 5.1256C14.8718 5.4236 14.9651 5.79093 14.9118 6.15893L14.2791 10.5309C14.1598 11.3629 13.4371 11.9903 12.5971 11.9903H5.31644C4.43844 11.9903 3.6951 11.3049 3.62377 10.4283L3.0131 3.1656L2.00844 2.99226C1.73577 2.94426 1.55377 2.68626 1.60044 2.4136C1.64844 2.14093 1.91177 1.9636 2.17844 2.00626ZM4.58326 5.56516L4.21844 5.56493L4.62044 10.3463C4.64977 10.7143 4.95044 10.9903 5.31777 10.9903H12.5958C12.9431 10.9903 13.2398 10.7316 13.2891 10.3883L13.9224 6.0156C13.9371 5.9116 13.9111 5.8076 13.8478 5.7236C13.7851 5.63893 13.6931 5.58426 13.5891 5.5696C13.5843 5.56978 13.5728 5.56995 13.5549 5.5701L13.4824 5.57052C13.4672 5.57058 13.4505 5.57064 13.4324 5.57069L13.0547 5.57127C13.0228 5.57129 12.9897 5.57131 12.9553 5.57132L12.0674 5.57129C12.0178 5.57127 11.9673 5.57125 11.9159 5.57123L10.9025 5.57061C10.8418 5.57057 10.7804 5.57052 10.7185 5.57047L10.145 5.57001C10.0797 5.56996 10.0139 5.5699 9.94765 5.56985L9.34026 5.56931C9.27167 5.56925 9.20274 5.56919 9.13353 5.56913L8.71514 5.56874C8.64494 5.56868 8.57454 5.56861 8.50397 5.56855L7.8655 5.56795C7.79431 5.56788 7.72308 5.56782 7.65184 5.56775L7.22475 5.56735C7.15367 5.56729 7.08267 5.56722 7.0118 5.56716L6.58833 5.56677C6.5181 5.56671 6.44807 5.56665 6.37829 5.56658L5.75796 5.56605C5.69001 5.56599 5.62242 5.56594 5.55525 5.56588L4.7713 5.56529C4.70803 5.56524 4.64534 5.5652 4.58326 5.56516ZM11.525 7.02913C11.801 7.02913 12.025 7.25313 12.025 7.52913C12.025 7.80513 11.801 8.02913 11.525 8.02913H9.67704C9.40037 8.02913 9.17704 7.80513 9.17704 7.52913C9.17704 7.25313 9.40037 7.02913 9.67704 7.02913H11.525Z" fill="white"/>
</g>
</g>
</g>
</svg>
